<svg xmlns="http://www.w3.org/2000/svg"  viewBox="0 0 80 80" width="80px" height="80px"><path fill="#f78f8f" d="M40,2C19,2,2,19,2,40s17,38,38,38s38-17,38-38S61,2,40,2z M12,40c0-15.5,12.5-28,28-28 c5.9,0,11.4,1.9,15.9,5L17,55.9C13.9,51.4,12,45.9,12,40z M40,68c-5.9,0-11.4-1.9-15.9-5L63,24.1c3.1,4.5,5,10,5,15.9 C68,55.5,55.5,68,40,68z"/><path fill="#c74343" d="M40,78.5C18.8,78.5,1.5,61.2,1.5,40C1.5,18.8,18.8,1.5,40,1.5c21.2,0,38.5,17.3,38.5,38.5 C78.5,61.2,61.2,78.5,40,78.5z M40,2.5C19.3,2.5,2.5,19.3,2.5,40S19.3,77.5,40,77.5S77.5,60.7,77.5,40S60.7,2.5,40,2.5z M40,68.5 c-5.8,0-11.4-1.8-16.2-5.1l-0.5-0.3l39.8-39.8l0.3,0.5c3.3,4.8,5.1,10.4,5.1,16.2C68.5,55.7,55.7,68.5,40,68.5z M24.8,62.9 c4.5,3,9.7,4.6,15.2,4.6c15.2,0,27.5-12.3,27.5-27.5c0-5.4-1.6-10.6-4.6-15.2L24.8,62.9z M16.9,56.7l-0.3-0.5 c-3.3-4.8-5.1-10.4-5.1-16.2c0-15.7,12.8-28.5,28.5-28.5c5.8,0,11.4,1.8,16.2,5.1l0.5,0.3L16.9,56.7z M40,12.5 c-15.2,0-27.5,12.3-27.5,27.5c0,5.4,1.6,10.6,4.6,15.2l38.1-38.1C50.6,14.1,45.4,12.5,40,12.5z"/></svg>